<?xml version="1.0" standalone="no"?>
<!DOCTYPE svg PUBLIC "-//W3C//DTD SVG 20010904//EN"
 "http://www.w3.org/TR/2001/REC-SVG-20010904/DTD/svg10.dtd">
<svg version="1.0" xmlns="http://www.w3.org/2000/svg"
 width="500.000000pt" height="500.000000pt" viewBox="0 0 500.000000 500.000000"
 preserveAspectRatio="xMidYMid meet">

<g transform="translate(0.000000,500.000000) scale(0.100000,-0.100000)"
fill="#000000" stroke="none">
<path d="M2170 4925 c-698 -109 -1230 -423 -1632 -963 -239 -320 -403 -704
-458 -1068 -94 -629 28 -1231 348 -1724 148 -228 400 -503 594 -648 353 -264
732 -418 1146 -467 167 -20 510 -20 672 0 566 69 1074 340 1500 800 318 343
533 795 595 1250 31 229 39 388 26 543 -21 252 -47 394 -107 587 -77 248 -218
513 -394 742 -87 114 -324 356 -425 435 -298 233 -615 388 -970 477 -256 64
-623 78 -895 36z m1139 -234 c46 -11 86 -23 90 -26 11 -12 -41 -45 -71 -45
-38 0 -104 34 -124 65 -17 27 -10 53 10 36 7 -6 50 -19 95 -30z m-233 -78 c10
-49 12 -52 48 -59 26 -4 47 -1 75 13 39 19 40 19 58 2 10 -11 45 -23 78 -29
98 -17 145 -32 145 -46 0 -29 -48 -45 -152 -53 -92 -7 -148 -21 -148 -37 0
-26 77 -140 143 -209 44 -47 77 -88 74 -91 -3 -3 -21 -1 -40 5 -37 12 -69 44
-142 139 -27 34 -53 61 -59 59 -17 -5 -19 -47 -6 -91 11 -37 10 -42 -11 -59
-12 -10 -29 -15 -37 -12 -12 4 -13 -3 -8 -39 4 -26 3 -47 -3 -50 -17 -11 -62
17 -78 47 -16 31 -10 43 22 49 28 5 25 33 -3 34 -13 1 -28 6 -34 12 -11 11 11
25 57 33 27 6 31 35 7 48 -15 8 -42 6 -101 -6 -75 -15 -82 -15 -106 1 -26 17
-33 40 -14 51 5 4 60 20 122 36 144 38 192 68 132 83 -31 8 -33 36 -2 36 38 0
67 12 67 26 0 21 -43 27 -113 18 -79 -11 -104 -8 -118 18 -9 16 -7 24 11 43
27 29 77 54 107 55 17 0 24 -7 29 -27z m-735 -143 c17 -16 28 -34 25 -39 -3
-4 -43 -11 -88 -15 -153 -13 -222 -28 -301 -63 -80 -35 -104 -37 -141 -10 -26
19 -14 35 53 64 68 30 319 91 379 92 36 1 49 -5 73 -29z m-1051 -120 c0 -6
-15 -19 -32 -28 -53 -27 -103 -85 -165 -189 -62 -105 -136 -189 -155 -177 -8
5 3 20 30 43 24 21 60 70 86 119 l45 84 -42 45 c-40 43 -41 46 -22 59 28 20
75 17 101 -7 l22 -21 52 41 c51 40 80 51 80 31z m-4 -147 c4 -16 12 -38 20
-50 12 -18 11 -26 -8 -60 -26 -47 -21 -72 25 -139 71 -103 78 -132 39 -153
-15 -8 -29 -5 -58 9 -21 11 -41 20 -45 20 -3 0 -9 -24 -13 -52 -9 -74 -23
-111 -45 -125 -48 -30 -61 73 -21 165 22 51 23 52 66 52 50 0 56 12 24 52 -16
21 -30 26 -79 30 -95 7 -97 13 -38 121 47 86 101 157 119 157 4 0 10 -12 14
-27z m1409 -93 c516 -48 906 -289 1205 -745 54 -82 163 -299 175 -348 4 -15
10 -27 14 -27 3 0 53 24 111 53 77 38 110 61 125 84 16 26 27 32 55 33 66 0
107 55 61 80 -39 20 -79 12 -116 -25 -43 -43 -60 -38 -51 17 17 108 101 178
160 135 14 -10 15 -17 7 -40 -14 -37 -16 -34 29 -57 59 -30 88 -25 164 25 74
48 113 56 138 28 41 -47 28 -113 -25 -133 -82 -31 -80 -28 -73 -62 3 -18 15
-41 25 -53 11 -11 25 -33 31 -49 9 -24 7 -32 -6 -47 -24 -26 -51 -23 -109 11
-57 34 -86 37 -110 13 -15 -14 -21 -15 -49 -4 -63 26 -73 25 -158 -24 -83 -47
-130 -58 -175 -42 -21 8 -21 6 -13 -23 39 -138 61 -374 49 -537 -32 -438 -225
-811 -578 -1120 -210 -184 -446 -299 -725 -355 -148 -30 -472 -32 -611 -5
-508 100 -928 420 -1158 882 -106 212 -154 399 -164 635 -12 296 41 547 173
815 82 166 172 293 304 425 340 340 806 505 1295 460z m-1210 -96 c45 -21 50
-39 17 -64 -22 -18 -35 -20 -72 -15 -82 12 -113 48 -68 79 29 20 81 20 123 0z
m2362 -41 c16 -9 62 -46 103 -80 41 -35 102 -79 136 -98 68 -38 134 -105 134
-135 0 -16 -7 -20 -31 -20 -26 0 -44 13 -103 73 -54 56 -92 84 -156 117 -92
46 -133 79 -157 123 -20 40 -11 60 22 47 13 -5 37 -17 52 -27z m-3391 -463 c7
0 51 -34 96 -75 46 -41 90 -75 99 -75 12 0 18 12 22 46 5 52 32 89 46 65 5 -8
12 -51 16 -95 9 -97 24 -130 66 -145 38 -13 53 -4 74 46 12 29 19 33 50 33 20
0 35 -3 33 -7 -31 -61 -51 -114 -56 -145 -4 -32 -12 -44 -43 -64 -46 -29 -57
-60 -35 -102 21 -41 20 -65 -4 -87 -17 -15 -23 -16 -50 -5 -17 7 -47 34 -67
59 -65 82 -69 84 -113 58 -47 -26 -59 -18 -38 26 23 48 10 64 -60 72 -85 10
-85 10 -67 45 29 55 80 64 187 30 80 -25 78 -25 78 9 0 31 -36 73 -85 98 -66
35 -225 146 -240 169 -15 24 -15 25 17 39 18 8 39 12 46 10 8 -3 20 -5 28 -5z
m229 -1157 c4 -10 9 -54 12 -98 6 -94 -8 -122 -68 -131 -28 -5 -41 -1 -67 21
l-31 26 -21 -40 c-16 -32 -29 -43 -61 -52 -35 -11 -45 -10 -75 6 -39 21 -69
77 -79 147 l-6 46 75 1 c72 1 201 22 251 41 13 5 29 18 35 30 13 25 26 26 35
3z m4050 -123 c30 -11 30 -13 -7 -152 -21 -78 -32 -94 -40 -60 -7 26 -322 106
-339 86 -27 -32 -29 8 -4 83 3 8 22 3 62 -17 69 -35 286 -83 303 -66 5 5 10
28 10 49 0 31 -7 45 -32 70 l-33 30 27 -7 c15 -3 39 -11 53 -16z m-3992 -154
c16 -35 51 -157 45 -160 -14 -8 -61 -26 -70 -26 -6 0 -2 10 10 23 23 24 29 80
13 106 -10 16 -71 10 -127 -14 -26 -11 -32 -18 -27 -32 11 -33 25 -43 49 -37
13 3 24 2 24 -3 0 -5 -29 -18 -65 -30 -62 -20 -88 -16 -45 7 23 12 27 58 6 66
-7 3 -45 -5 -82 -18 -62 -22 -69 -26 -66 -49 6 -43 36 -74 78 -79 38 -5 38 -6
16 -18 -13 -7 -37 -12 -55 -10 -30 3 -33 7 -59 83 -15 44 -28 90 -28 101 0 19
4 21 43 17 23 -2 62 2 87 11 128 42 215 76 218 86 7 19 18 10 35 -24z m3794
-71 c83 -35 137 -118 113 -175 -19 -47 -56 -65 -130 -64 -201 2 -337 202 -173
254 38 13 143 4 190 -15z m-3703 -165 c9 -22 16 -44 16 -49 0 -5 -24 -11 -54
-13 -70 -6 -293 -110 -288 -134 6 -28 -22 -9 -40 27 -9 19 -17 39 -17 44 -1 6
30 17 67 26 96 24 216 76 249 108 38 39 48 37 67 -9z m3564 -92 c62 -23 137
-90 147 -131 10 -37 -12 -85 -46 -102 -110 -57 -329 57 -329 170 0 89 91 114
228 63z m-3483 -78 c14 -27 25 -51 25 -54 0 -3 -16 -2 -35 1 -29 5 -46 -2
-108 -41 -138 -86 -183 -99 -237 -71 -38 19 -40 56 -5 90 28 29 35 30 61 10
19 -15 19 -15 0 -30 -11 -8 -28 -15 -38 -15 -10 0 -18 -7 -18 -15 0 -23 41
-18 101 13 122 62 208 118 209 133 0 14 8 29 16 29 2 0 15 -22 29 -50z m3231
-99 c13 -16 70 -57 127 -92 56 -34 110 -69 119 -77 13 -11 21 -12 31 -3 21 17
28 2 12 -28 -27 -53 -38 -54 -81 -13 -22 20 -57 46 -78 57 l-38 20 -24 -30
c-13 -16 -24 -32 -23 -35 0 -3 25 -24 56 -47 40 -31 66 -43 90 -43 18 0 33 -3
33 -7 0 -5 -13 -27 -29 -51 l-30 -43 -13 28 c-19 40 -274 208 -293 193 -23
-19 -26 6 -3 36 36 49 37 49 54 26 8 -12 36 -36 61 -53 l46 -32 24 29 c28 35
28 43 6 61 -44 35 -67 47 -99 52 l-34 6 25 38 c14 20 28 37 31 37 3 0 16 -13
30 -29z m-3148 -40 c13 -23 21 -41 18 -41 -3 0 6 -11 19 -25 14 -13 25 -31 25
-40 0 -17 -75 -173 -112 -232 -11 -18 -16 -33 -12 -33 3 0 47 32 96 72 65 53
88 77 85 90 -8 27 8 30 30 5 36 -40 39 -51 11 -44 -20 5 -40 -6 -109 -61 -129
-105 -197 -153 -203 -143 -3 4 26 72 65 151 38 79 68 144 67 146 -2 1 -48 -34
-103 -78 -80 -64 -100 -85 -98 -104 2 -30 -4 -30 -34 -2 -26 25 -34 70 -8 48
12 -10 19 -9 37 2 53 35 243 192 246 203 2 6 -5 22 -15 34 l-19 23 -99 -54
c-60 -32 -121 -74 -154 -106 -41 -40 -56 -50 -63 -40 -38 58 -49 80 -44 85 3
3 11 1 18 -4 18 -15 240 118 281 168 35 42 41 40 75 -20z m3038 -192 l29 -31
-35 8 c-79 18 -106 4 -96 -49 10 -51 79 -125 151 -158 99 -47 133 -35 122 46
-8 54 -1 57 19 10 28 -68 12 -106 -57 -125 -118 -34 -300 138 -259 245 12 31
66 85 84 85 7 0 25 -14 42 -31z m-2769 -149 c6 -14 14 -33 18 -44 4 -15 8 -16
20 -6 27 23 15 -4 -20 -44 -38 -43 -51 -44 -35 -2 38 101 -30 124 -129 45
-115 -90 -158 -219 -74 -219 30 0 83 51 83 79 0 26 10 26 44 0 29 -23 35 -49
10 -49 -9 0 -38 -23 -65 -51 -27 -29 -53 -49 -56 -45 -4 3 -1 12 5 18 20 20
14 28 -21 28 -43 0 -67 26 -74 78 -7 53 12 106 56 155 74 82 209 114 238 57z
m2588 -21 l40 -41 -35 8 c-70 15 -110 1 -110 -41 0 -12 9 -30 20 -40 18 -17
27 -17 84 -7 106 20 130 17 164 -22 38 -44 47 -84 29 -128 -12 -29 -22 -36
-58 -44 -25 -6 -43 -15 -41 -22 3 -18 -13 -15 -30 6 -31 35 -30 40 9 36 54 -7
105 26 101 64 -4 40 -47 57 -103 43 -75 -19 -111 -14 -149 20 -37 32 -53 79
-42 124 5 18 17 28 46 36 32 10 39 16 34 31 -8 26 -3 23 41 -23z m-302 -241
c31 -52 26 -61 -12 -24 -25 24 -31 25 -57 16 -16 -6 -37 -18 -46 -27 -17 -15
-16 -19 14 -74 30 -58 47 -69 77 -50 9 6 11 18 7 35 -11 44 12 29 40 -25 25
-51 28 -73 4 -44 -16 19 -44 19 -60 0 -10 -12 -6 -26 22 -77 40 -73 61 -81
107 -42 33 27 35 41 16 87 -4 10 -3 17 4 17 11 0 57 -88 49 -94 -11 -9 -186
-106 -190 -106 -3 0 -8 22 -10 49 -3 34 -17 69 -41 108 -20 32 -51 84 -69 115
-20 36 -40 58 -50 58 -31 0 -20 15 35 47 28 16 68 40 87 51 19 11 38 21 41 21
4 1 18 -18 32 -41z m-1946 8 c1 -1 -36 -68 -83 -149 -85 -150 -94 -172 -71
-180 6 -2 9 -7 5 -11 -9 -11 -108 42 -108 58 0 9 7 12 19 9 15 -4 29 13 69 79
77 128 95 169 83 181 -22 22 -10 28 37 21 26 -3 48 -7 49 -8z m168 -80 c15
-11 17 -21 12 -67 -16 -131 -66 -223 -144 -267 l-42 -23 -17 26 c-40 61 11
231 92 305 46 42 69 48 99 26z m1443 -65 c-9 -14 1 -48 52 -175 62 -154 64
-157 89 -151 44 11 71 44 71 87 0 21 4 38 10 38 8 0 30 -61 30 -86 0 -10 -81
-51 -168 -84 -34 -13 -53 -7 -35 11 7 7 5 24 -7 57 -9 26 -29 83 -45 126 -18
50 -42 95 -64 119 -20 22 -31 42 -26 44 6 2 28 12 50 22 45 21 60 18 43 -8z
m-1268 -21 c0 -10 -14 -59 -31 -107 -79 -227 -75 -214 -56 -224 9 -6 17 -14
17 -20 0 -11 -38 -3 -88 17 l-33 14 29 37 c18 23 44 82 65 148 30 94 34 112
21 121 -22 17 -17 22 24 27 20 2 40 4 45 5 4 1 7 -7 7 -18z m1117 -49 c92 -48
144 -233 89 -315 -21 -33 -78 -62 -137 -71 l-46 -7 0 59 c1 39 -10 90 -31 156
-18 53 -32 106 -32 117 0 12 -9 24 -22 29 -22 8 -21 9 12 26 65 34 112 36 167
6z m-760 -13 c4 -7 10 -62 13 -123 l5 -110 29 80 c16 44 35 94 42 111 l12 32
53 -10 c31 -6 116 -8 196 -5 l141 6 35 -38 c42 -47 62 -120 54 -202 -10 -108
-68 -169 -163 -169 -53 0 -76 12 -51 27 12 7 12 29 -4 148 -10 77 -18 148 -18
157 -1 9 -8 24 -17 33 -15 15 -18 15 -32 1 -12 -12 -16 -45 -16 -163 -1 -81 2
-160 7 -175 7 -27 6 -28 -32 -28 -22 0 -46 3 -55 6 -13 5 -14 8 -1 28 22 34
28 102 20 230 -6 104 -9 116 -26 116 -24 0 -39 -29 -39 -77 0 -21 -9 -81 -21
-133 -11 -55 -17 -109 -14 -128 l6 -34 -43 7 c-24 4 -45 9 -47 11 -2 1 6 22
17 46 18 38 43 187 41 243 0 11 -17 -29 -38 -90 -40 -117 -69 -180 -78 -171
-3 3 -8 65 -10 138 -3 73 -7 135 -8 136 -2 2 -10 -18 -18 -45 l-15 -48 1 80
c1 44 -2 90 -7 103 -7 20 -4 22 33 22 22 0 43 -6 48 -12z m-80 -295 c-1 -32 1
-65 3 -73 6 -16 -28 -25 -47 -12 -10 6 -7 24 13 75 14 37 27 67 29 67 1 0 2
-26 2 -57z"/>
<path d="M3270 4516 c0 -2 16 -14 35 -26 25 -15 44 -20 61 -16 25 7 26 8 9 26
-13 14 -31 20 -62 20 -23 0 -43 -2 -43 -4z"/>
<path d="M1161 4042 c-12 -22 -6 -32 21 -32 14 0 19 6 16 22 -4 29 -24 34 -37
10z"/>
<path d="M2465 3822 c-16 -11 -57 -48 -89 -83 -90 -97 -99 -103 -133 -85 -15
8 -55 38 -88 66 -71 63 -108 80 -174 80 -148 0 -403 -190 -550 -411 -145 -216
-227 -457 -252 -739 -37 -405 106 -786 407 -1091 155 -158 335 -260 631 -358
98 -33 181 -66 184 -73 41 -91 74 -113 171 -113 57 0 70 4 92 24 14 14 26 34
26 46 0 40 23 54 141 84 277 71 503 196 690 381 195 192 317 405 380 660 20
83 23 120 24 295 0 174 -3 214 -23 304 -74 327 -230 578 -522 839 -169 151
-261 199 -342 179 -13 -4 -70 -47 -127 -97 -57 -49 -107 -90 -111 -90 -4 0
-43 39 -86 86 -43 48 -93 93 -111 100 -45 19 -103 17 -138 -4z m139 -72 c17
-10 49 -45 71 -76 56 -80 95 -124 109 -124 7 0 55 35 107 78 127 104 176 142
184 142 18 0 222 -149 311 -228 314 -279 474 -627 474 -1033 0 -190 -32 -336
-114 -521 l-26 -58 -165 0 c-104 0 -165 4 -165 10 0 6 29 68 65 139 91 181
109 260 109 466 0 141 -3 172 -27 258 -83 310 -298 546 -574 631 -18 6 -25 1
-37 -23 -33 -64 -24 -87 73 -181 182 -177 256 -357 255 -625 0 -259 -78 -474
-233 -637 -34 -37 -37 -38 -103 -38 -38 0 -68 4 -68 10 0 5 25 60 56 121 99
197 135 330 135 504 1 258 -77 454 -258 646 -68 72 -183 169 -201 169 -18 0
-194 -174 -257 -255 -127 -162 -195 -319 -215 -493 -24 -210 31 -407 174 -627
51 -80 47 -92 -30 -81 -60 8 -114 37 -154 83 -68 77 -149 290 -180 471 -30
171 -24 292 20 435 28 90 123 230 206 303 36 32 72 71 81 87 16 32 12 81 -10
112 -13 17 -16 17 -66 0 -103 -34 -183 -87 -281 -185 -100 -100 -140 -159
-196 -288 -54 -125 -77 -244 -77 -402 0 -193 23 -287 110 -458 37 -74 70 -138
71 -143 2 -5 -77 -9 -187 -9 l-191 0 -20 32 c-34 55 -81 188 -103 288 -30 137
-30 391 1 545 69 346 224 631 436 801 148 118 260 158 336 119 16 -9 65 -47
107 -85 43 -39 89 -73 101 -77 32 -8 65 18 133 106 31 40 69 81 85 92 37 24
88 24 128 -1z m11 -871 c68 -75 100 -187 93 -322 -4 -70 -10 -97 -37 -151 -37
-75 -92 -126 -119 -110 -86 55 -141 249 -113 398 18 99 89 226 126 226 7 0 29
-18 50 -41z m560 -1211 c-12 -37 -65 -86 -114 -104 -32 -11 -94 -18 -207 -21
l-162 -6 -15 24 c-9 13 -17 44 -19 69 -3 42 -2 45 27 50 17 4 135 8 263 9
l234 2 -7 -23z m-721 -46 c-1 -29 -7 -58 -13 -66 -16 -19 -216 -30 -309 -16
-89 12 -146 40 -172 83 -37 59 -44 58 238 55 l257 -3 -1 -53z"/>
<path d="M4553 3093 c-26 -10 -12 -33 27 -43 43 -12 60 -7 60 15 0 26 -52 43
-87 28z"/>
<path d="M730 3167 c0 -19 33 -47 53 -47 22 0 22 23 -1 43 -22 20 -52 22 -52
4z"/>
<path d="M572 2258 c-50 -11 -62 -30 -37 -58 21 -23 79 -27 120 -8 21 9 25 18
23 42 -3 27 -7 31 -33 33 -16 1 -49 -3 -73 -9z"/>
<path d="M416 2224 c-83 -16 -93 -24 -80 -61 9 -26 14 -28 62 -27 66 2 102 24
102 64 0 16 -3 31 -7 33 -5 2 -39 -2 -77 -9z"/>
<path d="M4312 1978 c-31 -31 5 -77 100 -126 144 -76 266 -56 197 32 -53 67
-259 132 -297 94z"/>
<path d="M4200 1721 c-15 -29 -5 -54 33 -84 78 -59 202 -105 251 -93 29 7 41
37 27 64 -23 44 -163 113 -259 128 -34 5 -42 3 -52 -15z"/>
<path d="M1717 823 c-45 -71 -96 -181 -107 -229 -33 -144 79 5 130 175 27 88
16 116 -23 54z"/>
<path d="M2972 711 c-26 -16 58 -341 89 -341 13 0 40 31 50 57 23 61 -1 188
-46 242 -27 31 -75 53 -93 42z"/>
<path d="M2705 659 c-8 -12 0 -94 22 -236 18 -116 30 -128 77 -73 46 56 44
187 -5 267 -27 43 -79 67 -94 42z"/>
</g>
</svg>
